<?xml version="1.0" encoding="UTF-8" standalone="no"?>
<svg
   xmlns:dc="http://purl.org/dc/elements/1.1/"
   xmlns:cc="http://creativecommons.org/ns#"
   xmlns:rdf="http://www.w3.org/1999/02/22-rdf-syntax-ns#"
   xmlns:svg="http://www.w3.org/2000/svg"
   xmlns="http://www.w3.org/2000/svg"
   xmlns:sodipodi="http://sodipodi.sourceforge.net/DTD/sodipodi-0.dtd"
   xmlns:inkscape="http://www.inkscape.org/namespaces/inkscape"
   width="16"
   viewBox="0 0 16 16"
   version="1.1"
   height="16"
   id="svg2"
   inkscape:version="0.91+devel r14094"
   sodipodi:docname="apple-highlight.svg">
  <metadata
     id="metadata10">
    <rdf:RDF>
      <cc:Work
         rdf:about="">
        <dc:format>image/svg+xml</dc:format>
        <dc:type
           rdf:resource="http://purl.org/dc/dcmitype/StillImage" />
        <dc:title />
      </cc:Work>
    </rdf:RDF>
  </metadata>
  <defs
     id="defs8" />
  <sodipodi:namedview
     pagecolor="#ffffff"
     bordercolor="#666666"
     borderopacity="1"
     objecttolerance="10"
     gridtolerance="10"
     guidetolerance="10"
     inkscape:pageopacity="0"
     inkscape:pageshadow="2"
     inkscape:window-width="1125"
     inkscape:window-height="635"
     id="namedview6"
     showgrid="false"
     showborder="false"
     inkscape:showpageshadow="false"
     inkscape:zoom="22.211765"
     inkscape:cx="-1.485699"
     inkscape:cy="5.7627119"
     inkscape:window-x="0"
     inkscape:window-y="0"
     inkscape:window-maximized="0"
     inkscape:current-layer="svg2" />
  <path
     d="m 14.4561,12.468858 c -0.241967,0.558996 -0.528378,1.073547 -0.86022,1.54662 -0.452332,0.64492 -0.822693,1.091325 -1.108115,1.339219 -0.442455,0.406901 -0.916516,0.615289 -1.424155,0.627141 -0.364434,0 -0.803926,-0.103696 -1.3155145,-0.314064 -0.513269,-0.209377 -0.9849582,-0.313077 -1.4162532,-0.313077 -0.4523324,0 -0.9374532,0.103696 -1.4563518,0.313077 -0.5196874,0.210363 -0.938342,0.31999 -1.2584314,0.330854 C 5.1302595,16.019365 4.6450395,15.805053 4.1607086,15.354697 3.8515817,15.085075 3.464927,14.622867 3.0017313,13.968072 2.5047589,13.268833 2.096178,12.457993 1.7760897,11.533578 1.4332853,10.535089 1.2614386,9.5682045 1.2614386,8.6321341 c 0,-1.0722639 0.2316957,-1.9970754 0.6957816,-2.7720643 C 2.3219497,5.2375701 2.8071696,4.7465232 3.4144596,4.3860403 4.0217495,4.0255573 4.6779272,3.8418592 5.3845723,3.8301064 c 0.3866558,0 0.8937018,0.1196013 1.5238057,0.354656 0.6283274,0.2358447 1.031772,0.3554461 1.2086549,0.3554461 0.1322426,0 0.5804277,-0.1398477 1.3402066,-0.4186541 0.7184965,-0.2585601 1.3248985,-0.3656186 1.8216725,-0.3234469 1.346132,0.1086389 2.357459,0.6392892 3.030032,1.5953097 -1.203914,0.7294594 -1.799452,1.7511569 -1.7876,3.0618334 0.01081,1.0209073 0.381223,1.8704624 1.109102,2.5450094 0.329866,0.313077 0.698251,0.555045 1.108115,0.726892 -0.08889,0.25777 -0.182712,0.504675 -0.282461,0.741706 z M 11.368786,0.32008904 c 0,0.80018326 -0.292336,1.54731136 -0.875035,2.23884596 C 9.7905634,3.3810336 8.940021,3.8560809 8.017678,3.7811203 8.005928,3.6851233 7.999113,3.5840892 7.999113,3.4779196 c 0,-0.7681744 0.3344097,-1.590273 0.9282681,-2.2624502 C 9.2238665,0.87513409 9.6009406,0.59214996 10.058211,0.36640874 10.514493,0.14403519 10.946085,0.02105619 11.351999,-5.1435167e-8 11.363849,0.10696923 11.368789,0.21394903 11.368789,0.32007927 Z"
     id="path4"
     inkscape:connector-curvature="0"
     style="stroke-width:0.99999988;fill:#ffffff;fill-opacity:1" />
</svg>
